<mxfile host="app.diagrams.net" modified="2024-07-22T12:49:08.406Z" agent="Mozilla/5.0 (Macintosh; Intel Mac OS X 10_15_7) AppleWebKit/605.1.15 (KHTML, like Gecko) Version/17.5 Safari/605.1.15" etag="dJgZXly40bBMeKo7sTLN" version="24.7.1" type="github">
  <diagram name="Page-1" id="DguRtOjJYRH1dDEnre_Z">
    <mxGraphModel dx="1162" dy="1971" grid="1" gridSize="10" guides="1" tooltips="1" connect="1" arrows="1" fold="1" page="1" pageScale="1" pageWidth="827" pageHeight="1169" math="0" shadow="0">
      <root>
        <mxCell id="0" />
        <mxCell id="1" parent="0" />
        <mxCell id="7eAaaUFWGwqT6MF5oW4g-1" value="" style="edgeStyle=orthogonalEdgeStyle;rounded=0;orthogonalLoop=1;jettySize=auto;html=1;" edge="1" parent="1" source="7eAaaUFWGwqT6MF5oW4g-2" target="7eAaaUFWGwqT6MF5oW4g-7">
          <mxGeometry relative="1" as="geometry" />
        </mxCell>
        <mxCell id="7eAaaUFWGwqT6MF5oW4g-2" value="User enter&amp;nbsp;&lt;div&gt;characters in input&lt;/div&gt;&lt;div style=&quot;text-align: start;&quot;&gt;&amp;nbsp; &amp;nbsp;(inputHeader)&lt;/div&gt;&lt;div&gt;&lt;br&gt;&lt;/div&gt;" style="rounded=1;whiteSpace=wrap;html=1;" vertex="1" parent="1">
          <mxGeometry x="255" y="-1050" width="120" height="60" as="geometry" />
        </mxCell>
        <mxCell id="7eAaaUFWGwqT6MF5oW4g-3" value="&lt;div&gt;MESSAGE&lt;/div&gt;ERROR : Veuillez entrer minimum 3 caractères" style="rounded=1;whiteSpace=wrap;html=1;" vertex="1" parent="1">
          <mxGeometry x="45" y="-860" width="120" height="90" as="geometry" />
        </mxCell>
        <mxCell id="7eAaaUFWGwqT6MF5oW4g-4" value="Start" style="ellipse;whiteSpace=wrap;html=1;" vertex="1" parent="1">
          <mxGeometry x="255" y="-1160" width="120" height="80" as="geometry" />
        </mxCell>
        <mxCell id="7eAaaUFWGwqT6MF5oW4g-5" value="no" style="edgeStyle=orthogonalEdgeStyle;rounded=0;orthogonalLoop=1;jettySize=auto;html=1;entryX=1;entryY=0.5;entryDx=0;entryDy=0;" edge="1" parent="1" source="7eAaaUFWGwqT6MF5oW4g-6" target="7eAaaUFWGwqT6MF5oW4g-3">
          <mxGeometry relative="1" as="geometry" />
        </mxCell>
        <mxCell id="7eAaaUFWGwqT6MF5oW4g-6" value="&lt;div&gt;input.lenght &amp;gt;= 3&lt;br&gt;&lt;/div&gt;" style="rhombus;whiteSpace=wrap;html=1;rounded=1;" vertex="1" parent="1">
          <mxGeometry x="247.5" y="-870" width="130" height="110" as="geometry" />
        </mxCell>
        <mxCell id="7eAaaUFWGwqT6MF5oW4g-7" value="Click Search&lt;div&gt;Press Enter&lt;/div&gt;" style="rounded=1;whiteSpace=wrap;html=1;" vertex="1" parent="1">
          <mxGeometry x="255" y="-960" width="120" height="60" as="geometry" />
        </mxCell>
        <mxCell id="7eAaaUFWGwqT6MF5oW4g-8" value="input to lowercase" style="rounded=1;whiteSpace=wrap;html=1;" vertex="1" parent="1">
          <mxGeometry x="252.5" y="-740" width="120" height="60" as="geometry" />
        </mxCell>
        <mxCell id="7eAaaUFWGwqT6MF5oW4g-9" value="Filter recipes" style="rounded=1;whiteSpace=wrap;html=1;" vertex="1" parent="1">
          <mxGeometry x="255" y="-420" width="120" height="50" as="geometry" />
        </mxCell>
        <mxCell id="7eAaaUFWGwqT6MF5oW4g-10" value="Loop through each recipe" style="whiteSpace=wrap;html=1;rounded=1;" vertex="1" parent="1">
          <mxGeometry x="217.5" y="-320" width="200" height="60" as="geometry" />
        </mxCell>
        <mxCell id="7eAaaUFWGwqT6MF5oW4g-11" value="&lt;p style=&quot;margin: 0px; font-style: normal; font-variant-caps: normal; font-stretch: normal; font-size: 13px; line-height: normal; font-family: &amp;quot;.AppleSystemUIFontMonospaced&amp;quot;; font-size-adjust: none; font-kerning: auto; font-variant-alternates: normal; font-variant-ligatures: normal; font-variant-numeric: normal; font-variant-east-asian: normal; font-variant-position: normal; font-variant-emoji: normal; font-feature-settings: normal; font-optical-sizing: auto; font-variation-settings: normal;&quot;&gt;Check if queryWord matches recipe name, description, or ingredients&lt;/p&gt;" style="whiteSpace=wrap;html=1;rounded=1;" vertex="1" parent="1">
          <mxGeometry x="520" y="-1050" width="240" height="60" as="geometry" />
        </mxCell>
        <mxCell id="7eAaaUFWGwqT6MF5oW4g-12" value="" style="edgeStyle=orthogonalEdgeStyle;rounded=0;orthogonalLoop=1;jettySize=auto;html=1;" edge="1" parent="1" source="7eAaaUFWGwqT6MF5oW4g-13" target="7eAaaUFWGwqT6MF5oW4g-15">
          <mxGeometry relative="1" as="geometry" />
        </mxCell>
        <mxCell id="7eAaaUFWGwqT6MF5oW4g-13" value="return filteredRecipes" style="rounded=1;whiteSpace=wrap;html=1;" vertex="1" parent="1">
          <mxGeometry x="575" y="-970" width="120" height="60" as="geometry" />
        </mxCell>
        <mxCell id="7eAaaUFWGwqT6MF5oW4g-14" value="" style="edgeStyle=orthogonalEdgeStyle;rounded=0;orthogonalLoop=1;jettySize=auto;html=1;" edge="1" parent="1" source="7eAaaUFWGwqT6MF5oW4g-15" target="7eAaaUFWGwqT6MF5oW4g-17">
          <mxGeometry relative="1" as="geometry" />
        </mxCell>
        <mxCell id="7eAaaUFWGwqT6MF5oW4g-15" value="displayResults(filteredRecipes)" style="rounded=1;whiteSpace=wrap;html=1;" vertex="1" parent="1">
          <mxGeometry x="535" y="-860" width="200" height="60" as="geometry" />
        </mxCell>
        <mxCell id="7eAaaUFWGwqT6MF5oW4g-16" value="" style="edgeStyle=orthogonalEdgeStyle;rounded=0;orthogonalLoop=1;jettySize=auto;html=1;" edge="1" parent="1" source="7eAaaUFWGwqT6MF5oW4g-17" target="7eAaaUFWGwqT6MF5oW4g-19">
          <mxGeometry relative="1" as="geometry" />
        </mxCell>
        <mxCell id="7eAaaUFWGwqT6MF5oW4g-17" value="Clear current displayed recipes" style="rounded=1;whiteSpace=wrap;html=1;" vertex="1" parent="1">
          <mxGeometry x="527.5" y="-720" width="220" height="60" as="geometry" />
        </mxCell>
        <mxCell id="7eAaaUFWGwqT6MF5oW4g-18" style="edgeStyle=orthogonalEdgeStyle;rounded=0;orthogonalLoop=1;jettySize=auto;html=1;entryX=0.5;entryY=0;entryDx=0;entryDy=0;" edge="1" parent="1" source="7eAaaUFWGwqT6MF5oW4g-19" target="7eAaaUFWGwqT6MF5oW4g-20">
          <mxGeometry relative="1" as="geometry" />
        </mxCell>
        <mxCell id="7eAaaUFWGwqT6MF5oW4g-19" value="Generate card for&lt;div&gt;each recipe&lt;/div&gt;" style="rounded=1;whiteSpace=wrap;html=1;" vertex="1" parent="1">
          <mxGeometry x="577.5" y="-580" width="120" height="60" as="geometry" />
        </mxCell>
        <mxCell id="7eAaaUFWGwqT6MF5oW4g-20" value="End" style="ellipse;whiteSpace=wrap;html=1;rounded=1;" vertex="1" parent="1">
          <mxGeometry x="570" y="-470" width="130" height="80" as="geometry" />
        </mxCell>
        <mxCell id="7eAaaUFWGwqT6MF5oW4g-21" value="" style="edgeStyle=orthogonalEdgeStyle;rounded=0;orthogonalLoop=1;jettySize=auto;html=1;" edge="1" parent="1" source="7eAaaUFWGwqT6MF5oW4g-22" target="7eAaaUFWGwqT6MF5oW4g-23">
          <mxGeometry relative="1" as="geometry" />
        </mxCell>
        <mxCell id="7eAaaUFWGwqT6MF5oW4g-22" value="if&amp;nbsp;&lt;div&gt;matchsQuery&lt;/div&gt;" style="rhombus;whiteSpace=wrap;html=1;rounded=1;" vertex="1" parent="1">
          <mxGeometry x="247.5" y="-550" width="130" height="100" as="geometry" />
        </mxCell>
        <mxCell id="7eAaaUFWGwqT6MF5oW4g-23" value="Error message : aucune &amp;nbsp;recette ne correspond à votre recherche" style="rounded=1;whiteSpace=wrap;html=1;" vertex="1" parent="1">
          <mxGeometry x="42.5" y="-530" width="120" height="60" as="geometry" />
        </mxCell>
        <mxCell id="7eAaaUFWGwqT6MF5oW4g-24" value="Rechercher des recettes à partir de 3 caractères entré" style="rounded=1;whiteSpace=wrap;html=1;" vertex="1" parent="1">
          <mxGeometry x="255" y="-644" width="120" height="60" as="geometry" />
        </mxCell>
      </root>
    </mxGraphModel>
  </diagram>
</mxfile>
